# Blender v3.0.0 OBJ File: 'AllModelsFileConverter.blend'
# www.blender.org
mtllib PcANdTisch.mtl
o PCAndTisch
v -1.187500 0.000000 0.625000
v -1.062500 0.000000 0.625000
v -1.062500 0.000000 0.562500
v 1.062500 0.000000 0.625000
v 1.187500 0.000000 0.625000
v -1.250000 0.000000 0.562500
v -1.187500 0.000000 0.562500
v -1.000000 0.000000 0.562500
v 1.000000 0.000000 0.562500
v 1.062500 0.000000 0.562500
v 1.187500 0.000000 0.562500
v 1.250000 0.000000 0.562500
v -1.250000 0.000000 0.437500
v -1.000000 0.000000 0.437500
v 1.000000 0.000000 0.437500
v 1.062500 0.000000 0.437500
v 1.187500 0.000000 0.437500
v 1.250000 0.000000 0.437500
v -1.187500 0.000000 0.437500
v -1.187500 0.000000 0.375000
v -1.062500 0.000000 0.437500
v -1.062500 0.000000 0.375000
v 1.062500 0.000000 0.375000
v 1.187500 0.000000 0.375000
v -1.187500 0.000000 -0.375000
v -1.187500 0.000000 -0.437500
v -1.062500 0.000000 -0.437500
v -1.062500 0.000000 -0.375000
v 1.062500 0.000000 -0.375000
v 1.187500 0.000000 -0.375000
v -1.250000 0.000000 -0.437500
v -1.000000 0.000000 -0.437500
v 1.062500 0.000000 -0.437500
v 1.000000 0.000000 -0.437500
v 1.187500 0.000000 -0.437500
v 1.250000 0.000000 -0.437500
v -1.250000 0.000000 -0.562500
v -1.062500 0.000000 -0.562500
v -1.000000 0.000000 -0.562500
v 1.000000 0.000000 -0.562500
v 1.062500 0.000000 -0.562500
v 1.187500 0.000000 -0.562500
v 1.250000 0.000000 -0.562500
v -1.187500 0.000000 -0.625000
v -1.187500 0.000000 -0.562500
v -1.062500 0.000000 -0.625000
v 1.062500 0.000000 -0.625000
v 1.187500 0.000000 -0.625000
v -1.062500 0.687500 0.437500
v 1.000000 0.687500 0.437500
v 1.187500 0.687500 0.375000
v -1.187500 0.687500 -0.375000
v -1.062500 0.687500 -0.375000
v 1.062500 0.687500 -0.437500
v 1.187500 0.687500 -0.375000
v 1.000000 0.687500 -0.437500
v -1.000000 0.687500 -0.562500
v 1.000000 0.687500 -0.562500
v -1.062500 0.750000 0.562500
v 1.062500 0.750000 0.562500
v 1.062500 0.750000 0.625000
v -1.000000 0.687500 0.562500
v 1.000000 0.687500 0.562500
v -1.187500 0.750000 0.437500
v 1.250000 0.750000 0.437500
v 1.187500 0.750000 0.437500
v -1.000000 0.687500 0.437500
v -1.062500 0.687500 0.375000
v 1.062500 0.687500 0.437500
v -1.187500 0.687500 0.375000
v 1.062500 0.687500 0.375000
v 1.062500 0.687500 -0.375000
v -1.062500 0.687500 -0.437500
v -1.000000 0.687500 -0.437500
v -1.187500 0.750000 -0.437500
v 1.250000 0.750000 -0.437500
v 1.062500 0.750000 -0.562500
v -1.187500 0.812500 0.625000
v -1.125000 0.812500 0.625000
v -1.062500 0.750000 0.625000
v 1.125000 0.812500 0.625000
v 1.187500 0.812500 0.625000
v -1.250000 0.812500 0.500000
v -1.250000 0.812500 0.562500
v 1.187500 0.812500 0.500000
v 1.250000 0.812500 0.562500
v -1.250000 0.750000 0.437500
v 1.187500 0.750000 -0.437500
v -1.250000 0.750000 -0.437500
v -1.250000 0.812500 -0.562500
v -1.250000 0.812500 -0.500000
v 1.250000 0.812500 -0.500000
v 1.187500 0.812500 -0.562500
v 1.250000 0.812500 -0.562500
v -1.125000 0.812500 -0.625000
v -1.187500 0.812500 -0.625000
v -1.125000 0.812500 -0.562500
v -1.062500 0.750000 -0.625000
v -1.062500 0.750000 -0.562500
v 1.062500 0.750000 -0.625000
v 1.125000 0.812500 -0.625000
v 1.187500 0.812500 -0.625000
v -1.125000 0.875000 0.562500
v -1.125000 0.875000 0.625000
v 1.125000 0.875000 0.625000
v 1.125000 0.875000 0.562500
v -1.187500 0.812500 0.562500
v -1.187500 0.812500 0.500000
v -1.125000 0.812500 0.562500
v 1.187500 0.812500 0.562500
v 1.125000 0.812500 0.562500
v -1.250000 0.875000 0.500000
v 1.250000 0.875000 0.500000
v 1.187500 0.875000 0.500000
v 1.250000 0.812500 0.500000
v -1.187500 0.875000 -0.500000
v -1.250000 0.875000 -0.500000
v 1.250000 0.875000 -0.500000
v 1.187500 0.812500 -0.500000
v 1.187500 0.875000 -0.500000
v -1.187500 0.812500 -0.500000
v -1.187500 0.812500 -0.562500
v 1.125000 0.812500 -0.562500
v -1.125000 0.875000 -0.625000
v 1.125000 0.875000 -0.625000
v -1.187500 0.937500 0.562500
v -0.062500 0.937500 0.500000
v 1.187500 0.937500 0.562500
v -1.187500 0.875000 0.500000
v -1.125000 0.937500 0.250000
v -0.062500 0.937500 0.250000
v 0.000000 0.937500 0.312500
v -1.000000 0.937500 0.187500
v -0.937500 0.937500 0.187500
v 0.000000 0.937500 0.187500
v -1.125000 0.875000 -0.562500
v -1.187500 0.937500 -0.562500
v 0.000000 0.937500 -0.562500
v 1.125000 0.875000 -0.562500
v 1.187500 0.937500 -0.562500
v -1.125000 1.000000 0.500000
v -1.125000 0.937500 0.500000
v -0.750000 1.000000 0.437500
v -0.687500 1.000000 0.437500
v -0.625000 1.000000 0.437500
v -0.562500 1.000000 0.437500
v -0.312500 1.000000 0.437500
v -0.187500 1.000000 0.437500
v -0.062500 1.000000 0.500000
v -1.062500 1.000000 0.375000
v -1.000000 1.000000 0.437500
v -0.875000 1.000000 0.437500
v -0.812500 1.000000 0.437500
v -0.750000 1.000000 0.375000
v -0.500000 1.000000 0.437500
v -0.437500 1.000000 0.437500
v -0.437500 1.000000 0.375000
v -0.375000 1.000000 0.375000
v -0.375000 1.000000 0.437500
v -0.250000 1.000000 0.437500
v -0.187500 1.000000 0.375000
v -0.125000 1.000000 0.375000
v -1.062500 1.000000 0.312500
v -1.000000 1.000000 0.375000
v -1.000000 1.000000 0.312500
v -0.937500 1.000000 0.312500
v -0.937500 1.000000 0.375000
v -0.875000 1.000000 0.375000
v -0.875000 1.000000 0.312500
v -0.812500 1.000000 0.312500
v -0.812500 1.000000 0.375000
v -0.687500 1.000000 0.312500
v -0.687500 1.000000 0.375000
v -0.625000 1.000000 0.312500
v -0.312500 1.000000 0.312500
v -0.312500 1.000000 0.375000
v -0.187500 1.000000 0.312500
v -0.062500 0.937500 0.312500
v -1.125000 1.000000 0.250000
v -1.000000 1.000000 0.250000
v -0.562500 1.000000 0.312500
v -0.375000 0.937500 0.250000
v -0.187500 1.000000 0.250000
v -0.250000 1.000000 0.312500
v -0.062500 1.000000 0.250000
v -1.187500 0.937500 0.187500
v -1.125000 0.937500 0.187500
v -1.062500 0.937500 0.187500
v -0.937500 1.000000 0.187500
v -0.375000 0.937500 0.187500
v -0.187500 1.000000 0.187500
v -1.125000 1.000000 0.187500
v -1.062500 1.000000 0.187500
v -1.000000 1.000000 0.187500
v -0.125000 1.000000 0.187500
v -1.187500 1.125000 0.187500
v -0.812500 1.125000 0.187500
v 0.000000 1.125000 0.187500
v -0.312500 1.125000 0.062500
v -0.875000 1.125000 -0.437500
v -1.187500 1.125000 -0.562500
v -0.750000 1.125000 -0.562500
v 0.000000 1.125000 -0.562500
v -1.125000 1.312500 0.125000
v -1.125000 1.250000 0.125000
v -0.500000 1.250000 0.062500
v -0.500000 1.250000 0.125000
v -0.062500 1.312500 0.125000
v -0.062500 1.250000 0.125000
v -0.187500 1.250000 -0.437500
v -1.125000 1.250000 -0.500000
v -0.187500 1.250000 -0.500000
v -0.062500 1.250000 -0.500000
v -0.062500 1.312500 -0.500000
v -1.187500 1.312500 0.125000
v -1.125000 1.312500 0.062500
v 0.000000 1.312500 0.125000
v -0.062500 1.312500 0.062500
v -1.125000 1.312500 -0.500000
v -1.187500 1.312500 -0.500000
v -0.125000 1.375000 -0.500000
v 0.000000 1.312500 -0.500000
v -1.062500 1.375000 -0.500000
v -1.062500 1.375000 -0.562500
v -0.187500 1.437500 -0.562500
v -0.125000 1.375000 -0.562500
v -1.000000 1.437500 -0.625000
v -1.000000 1.437500 -0.562500
v -0.187500 1.437500 -0.625000
v 0.000000 2.062500 -0.500000
v -1.000000 2.062500 -0.625000
v -0.875000 2.062500 -0.562500
v -0.187500 2.062500 -0.562500
v -0.187500 2.062500 -0.625000
v -1.062500 2.125000 -0.562500
v -1.000000 2.062500 -0.562500
v -0.875000 2.125000 -0.562500
v -0.625000 2.125000 -0.562500
v -0.625000 2.062500 -0.562500
v -0.125000 2.062500 -0.500000
v -0.125000 2.125000 -0.562500
v -1.187500 2.187500 0.125000
v 0.000000 2.187500 0.125000
v -0.062500 2.187500 0.125000
v -1.187500 2.187500 -0.500000
v -1.062500 2.125000 -0.500000
v -1.125000 2.187500 -0.500000
v -0.125000 2.125000 -0.500000
v -0.187500 2.125000 -0.500000
v 0.000000 2.187500 -0.500000
v -0.062500 2.187500 -0.500000
v -1.125000 2.250000 0.125000
v -1.125000 2.187500 0.125000
v -0.062500 2.187500 0.062500
v -0.062500 2.250000 0.125000
v -1.125000 2.250000 -0.500000
v -0.187500 2.250000 -0.500000
v -0.062500 2.250000 -0.500000
v -0.937500 1.000000 0.437500
v -0.625000 1.000000 0.375000
v -0.562500 1.000000 0.375000
v -0.750000 1.000000 0.312500
v -0.500000 1.000000 0.312500
v -0.500000 1.000000 0.375000
v -0.437500 1.000000 0.312500
v -0.375000 1.000000 0.312500
v -0.250000 1.000000 0.375000
v -0.125000 1.000000 0.312500
v -0.875000 1.125000 0.062500
v -0.812500 1.125000 0.062500
v -0.750000 1.125000 -0.437500
v -0.312500 1.125000 -0.437500
v -0.875000 1.250000 0.062500
v -0.312500 1.250000 0.062500
v -0.875000 1.250000 -0.437500
v -0.312500 1.250000 -0.437500
v -1.062500 1.375000 0.062500
v -0.187500 0.937500 0.187500
v -0.125000 0.937500 0.187500
v -0.125000 1.375000 0.062500
v -0.125000 2.062500 0.062500
v -0.062500 2.062500 0.062500
v -1.125000 2.187500 0.062500
v -1.062500 2.125000 0.062500
v -0.750000 2.187500 0.062500
v -0.750000 2.125000 0.062500
v -0.125000 2.125000 0.062500
vn 1.0000 0.0000 0.0000
vn 0.0000 -1.0000 0.0000
vn 0.0000 0.0000 1.0000
vn -1.0000 0.0000 0.0000
vn 0.0000 1.0000 0.0000
vn 0.0000 0.0000 -1.0000
usemtl PCAndTisch_#5
s off
f 24//1 51//1 55//1 30//1 35//1 88//1 66//1 17//1
f 89//2 75//2 64//2 87//2
f 7//3 107//3 84//3 6//3
f 26//3 75//3 89//3 31//3
f 137//4 122//4 121//4 116//4 129//4 108//4 107//4 126//4 186//4
f 41//4 77//4 100//4 47//4
f 98//1 99//1 38//1 46//1
f 66//2 88//2 76//2 65//2
f 58//4 40//4 34//4 56//4
f 122//4 96//4 44//4 45//4
f 12//3 86//3 110//3 11//3
f 132//5 135//5 279//5 278//5 190//5 182//5 131//5 178//5
f 59//2 60//2 61//2 80//2
f 51//2 71//2 69//2 50//2 63//2 62//2 67//2 49//2 68//2 70//2 52//2 53//2 73//2 74//2 57//2 58//2 56//2 54//2 72//2 55//2
f 42//6 93//6 94//6 43//6
f 33//3 54//3 56//3 34//3
f 32//3 74//3 73//3 27//3
f 31//2 37//2 45//2 44//2 46//2 38//2 39//2 32//2 27//2 28//2 25//2 26//2
f 43//1 94//1 92//1 118//1 113//1 115//1 86//1 12//1 18//1 65//1 76//1 36//1
f 78//5 79//5 109//5 107//5
f 67//1 62//1 8//1 14//1
f 81//5 82//5 110//5 111//5
f 84//5 107//5 108//5 83//5
f 110//5 86//5 115//5 85//5
f 17//6 66//6 65//6 18//6
f 91//5 121//5 122//5 90//5
f 119//5 92//5 94//5 93//5
f 122//5 97//5 95//5 96//5
f 100//2 77//2 99//2 98//2
f 53//3 52//3 25//3 28//3
f 123//5 93//5 102//5 101//5
f 79//4 104//4 103//4 109//4
f 81//1 111//1 106//1 105//1
f 83//3 108//3 129//3 112//3
f 85//3 115//3 113//3 114//3
f 121//6 91//6 117//6 116//6
f 92//6 119//6 120//6 118//6
f 97//4 136//4 124//4 95//4
f 123//1 101//1 125//1 139//1
f 11//1 110//1 82//1 5//1
f 120//1 119//1 93//1 140//1 128//1 110//1 85//1 114//1
f 21//6 49//6 67//6 14//6
f 90//6 122//6 45//6 37//6
f 22//1 68//1 49//1 21//1
f 136//6 97//6 122//6 137//6 138//6 140//6 93//6 123//6 139//6
f 48//1 102//1 93//1 42//1
f 136//5 139//5 125//5 124//5
f 1//4 78//4 107//4 7//4
f 24//6 23//6 71//6 51//6
f 29//4 72//4 54//4 33//4
f 30//3 55//3 72//3 29//3
f 16//2 23//2 24//2 17//2 18//2 12//2 11//2 5//2 4//2 10//2 9//2 15//2
f 14//2 8//2 3//2 2//2 1//2 7//2 6//2 13//2 19//2 20//2 22//2 21//2
f 4//4 61//4 60//4 10//4
f 129//5 116//5 117//5 112//5
f 75//4 26//4 25//4 52//4 70//4 20//4 19//4 64//4
f 103//3 106//3 111//3 110//3 128//3 126//3 107//3 109//3
f 105//3 104//3 79//3 78//3 1//3 2//3 80//3 61//3 4//3 5//3 82//3 81//3
f 6//4 84//4 83//4 112//4 117//4 91//4 90//4 37//4 31//4 89//4 87//4 13//4
f 15//4 9//4 63//4 50//4
f 40//6 58//6 57//6 39//6 38//6 99//6 77//6 41//6
f 126//5 128//5 140//5 138//5 135//5 132//5 178//5 127//5 142//5 130//5 182//5 190//5 134//5 133//5 188//5 187//5 186//5
f 105//5 106//5 103//5 104//5
f 27//1 73//1 53//1 28//1
f 69//4 71//4 23//4 16//4
f 15//6 50//6 69//6 16//6
f 10//3 60//3 59//3 3//3 8//3 62//3 63//3 9//3
f 57//1 74//1 32//1 39//1
f 100//6 98//6 46//6 44//6 96//6 95//6 124//6 125//6 101//6 102//6 48//6 47//6
f 41//2 47//2 48//2 42//2 43//2 36//2 35//2 30//2 29//2 33//2 34//2 40//2
f 13//6 87//6 64//6 19//6
f 113//5 118//5 120//5 114//5
f 59//1 80//1 2//1 3//1
f 76//3 88//3 35//3 36//3
f 20//6 70//6 68//6 22//6
usemtl PCAndTisch_#243
f 131//6 182//6 130//6 179//6 180//6 183//6 185//6
f 208//4 244//4 254//4 282//4 218//4
f 230//1 250//1 243//1 217//1 222//1
f 274//2 276//2 210//2 212//2 213//2 209//2 207//2 206//2
f 246//4 235//4 224//4 223//4
f 209//1 213//1 214//1 218//1 208//1
f 247//5 245//5 242//5 253//5 283//5
f 227//2 229//2 225//2 228//2
f 141//4 179//4 130//4 142//4
f 252//4 256//4 247//4 283//4 253//4
f 127//1 178//1 131//1 185//1 149//1
f 285//2 254//2 244//2 253//2 283//2
f 211//2 212//2 210//2 276//2 275//2 273//2 206//2 207//2 205//2
f 256//6 257//6 249//6 246//6 223//6 221//6 240//6 230//6 222//6 214//6 213//6 212//6 211//6 219//6 220//6 245//6 247//6
f 246//5 249//5 248//5 241//5 238//5 237//5 235//5
f 234//1 233//1 225//1 229//1
f 204//3 253//3 242//3 215//3
f 192//3 193//3 188//3 133//3 194//3 189//3 134//3 190//3 278//3 191//3 195//3 279//3 135//3 198//3 197//3 196//3 186//3 187//3
f 202//5 271//5 272//5 199//5 270//5 197//5 198//5 203//5
f 269//5 200//5 271//5 202//5 201//5 196//5 197//5 270//5
f 239//5 233//5 234//5 231//5 236//5 232//5
f 226//6 224//6 235//6 237//6 232//6 236//6 228//6 225//6 233//6 239//6 238//6 241//6
f 207//3 209//3 208//3 204//3 205//3
f 180//5 165//5 164//5 167//5 166//5 169//5 168//5 171//5 170//5 262//5 154//5 173//5 172//5 174//5 260//5 261//5 181//5 263//5 264//5 157//5 265//5 266//5 158//5 176//5 175//5 184//5 267//5 161//5 177//5 183//5
f 216//4 219//4 211//4 205//4 204//4
f 254//1 251//1 258//1 255//1 244//1
f 141//5 149//5 185//5 183//5 177//5 268//5 162//5 161//5 148//5 160//5 267//5 176//5 147//5 159//5 158//5 157//5 156//5 155//5 264//5 261//5 146//5 145//5 260//5 173//5 144//5 143//5 154//5 171//5 153//5 152//5 168//5 167//5 259//5 151//5 164//5 150//5 163//5 165//5 180//5 179//5
f 224//2 226//2 221//2 223//2
f 198//1 135//1 138//1 203//1
f 228//4 236//4 231//4 227//4
f 231//6 234//6 229//6 227//6
f 218//2 214//2 222//2 217//2 208//2
f 253//3 244//3 255//3 252//3
f 216//1 283//1 253//1 204//1
f 245//4 220//4 215//4 242//4
f 257//6 258//6 251//6 250//6 230//6 240//6 248//6 249//6
f 252//5 255//5 258//5 257//5 256//5
f 208//5 218//5 216//5 204//5
f 232//6 237//6 238//6 239//6
f 250//5 251//5 254//5 244//5 243//5
f 203//6 138//6 137//6 201//6 202//6
f 137//4 186//4 196//4 201//4
f 243//3 244//3 208//3 217//3
f 215//2 220//2 219//2 216//2 204//2
f 241//1 248//1 240//1 221//1 226//1
f 142//3 127//3 149//3 141//3
usemtl PCAndTisch_#251
f 275//4 200//4 269//4 273//4
f 272//1 276//1 274//1 199//1
f 275//6 276//6 272//6 271//6 200//6
f 270//3 199//3 274//3 206//3 273//3 269//3
f 151//5 259//5 167//5 164//5
f 152//5 153//5 171//5 168//5
f 143//5 144//5 173//5 154//5
f 145//5 146//5 261//5 260//5
f 155//5 156//5 157//5 264//5
f 159//5 147//5 176//5 158//5
f 160//5 148//5 161//5 267//5
f 150//5 164//5 165//5 163//5
f 167//5 168//5 169//5 166//5
f 171//5 154//5 262//5 170//5
f 173//5 260//5 174//5 172//5
f 261//5 264//5 263//5 181//5
f 157//5 158//5 266//5 265//5
f 176//5 267//5 184//5 175//5
f 161//5 162//5 268//5 177//5
f 284//3 277//3 280//3 281//3 287//3 286//3
usemtl PCAndTisch_#252
f 187//3 188//3 193//3 192//3
f 133//3 134//3 189//3 194//3
usemtl PCAndTisch_#62
f 278//3 279//3 195//3 191//3
usemtl PCAndTisch_#246
f 287//3 281//3 282//3 254//3 285//3 286//3
f 218//3 282//3 281//3 280//3 277//3 284//3 286//3 285//3 283//3 216//3
