# Blender v3.0.1 OBJ File: 'AllModelsFileConverter2.blend'
# www.blender.org
mtllib PcDoubleCase.mtl
o DoublePcCase
v -0.562500 0.000000 0.437500
v -0.437500 0.062500 0.375000
v -0.500000 0.062500 0.437500
v -0.375000 0.062500 0.375000
v -0.312500 0.062500 0.375000
v -0.125000 0.062500 0.437500
v -0.125000 0.000000 0.437500
v -0.062500 0.000000 0.437500
v 0.000000 0.000000 0.437500
v 0.062500 0.062500 0.437500
v 0.125000 0.062500 0.375000
v 0.187500 0.062500 0.375000
v 0.375000 0.062500 0.375000
v 0.437500 0.062500 0.375000
v 0.500000 0.000000 0.437500
v 0.437500 0.000000 0.437500
v -0.562500 0.000000 -0.500000
v -0.062500 0.000000 -0.500000
v 0.000000 0.000000 -0.500000
v 0.500000 0.000000 -0.500000
v -0.500000 0.062500 0.375000
v -0.500000 0.125000 0.375000
v -0.125000 0.125000 0.437500
v 0.062500 0.062500 0.375000
v 0.062500 0.125000 0.375000
v 0.062500 0.125000 0.437500
v 0.500000 0.125000 0.437500
v 0.437500 0.062500 0.437500
v 0.437500 0.125000 0.437500
v -0.500000 0.187500 0.437500
v -0.500000 0.125000 0.437500
v -0.437500 0.187500 0.375000
v -0.437500 0.187500 0.437500
v -0.437500 0.125000 0.437500
v -0.437500 0.125000 0.375000
v -0.187500 0.187500 0.437500
v -0.187500 0.125000 0.437500
v -0.187500 0.125000 0.375000
v -0.125000 0.187500 0.437500
v 0.062500 0.187500 0.437500
v 0.125000 0.187500 0.437500
v 0.125000 0.125000 0.437500
v 0.375000 0.125000 0.437500
v 0.375000 0.125000 0.375000
v 0.375000 0.187500 0.437500
v 0.437500 0.125000 0.375000
v -0.500000 0.250000 0.375000
v -0.500000 0.250000 0.437500
v -0.125000 0.250000 0.375000
v -0.125000 0.250000 0.437500
v -0.062500 0.187500 0.437500
v 0.437500 0.187500 0.437500
v 0.437500 0.250000 0.437500
v -0.437500 0.312500 0.375000
v -0.437500 0.250000 0.437500
v -0.187500 0.250000 0.437500
v 0.062500 0.250000 0.437500
v 0.125000 0.250000 0.437500
v 0.375000 0.250000 0.437500
v 0.375000 0.250000 0.375000
v -0.437500 0.312500 0.437500
v -0.187500 0.312500 0.437500
v 0.125000 0.312500 0.437500
v 0.375000 0.312500 0.437500
v -0.562500 0.750000 0.437500
v -0.500000 0.812500 0.437500
v -0.500000 0.812500 0.375000
v -0.500000 0.750000 0.437500
v -0.125000 0.812500 0.375000
v -0.125000 0.812500 0.437500
v 0.062500 0.812500 0.375000
v -0.500000 0.875000 0.375000
v -0.125000 0.875000 0.375000
v 0.062500 0.812500 0.437500
v 0.437500 0.812500 0.437500
v -0.500000 0.937500 0.375000
v 0.062500 0.875000 0.375000
v 0.062500 0.937500 0.375000
v 0.437500 0.875000 0.375000
v 0.437500 0.937500 0.437500
v -0.500000 1.000000 0.437500
v -0.125000 0.937500 0.375000
v -0.125000 1.000000 0.437500
v 0.062500 1.000000 0.375000
v 0.500000 0.937500 0.437500
v 0.437500 1.000000 0.375000
v -0.562500 1.062500 0.437500
v -0.500000 1.000000 0.375000
v -0.062500 1.000000 0.437500
v -0.062500 1.062500 0.437500
v 0.000000 1.062500 0.437500
v 0.062500 1.000000 0.437500
v 0.250000 1.000000 0.437500
v 0.437500 1.062500 0.437500
v 0.437500 1.000000 0.437500
v 0.500000 1.062500 0.437500
v -0.562500 1.062500 -0.500000
v -0.500000 1.062500 -0.500000
v -0.125000 1.062500 -0.500000
v -0.062500 1.062500 -0.500000
v 0.000000 1.062500 -0.500000
v 0.437500 1.062500 -0.500000
v 0.500000 1.062500 -0.500000
v -0.500000 1.125000 0.437500
v -0.500000 1.062500 0.437500
v -0.125000 1.062500 0.437500
v -0.125000 1.125000 0.437500
v 0.062500 1.125000 0.437500
v 0.062500 1.062500 0.437500
v 0.250000 1.125000 0.437500
v 0.437500 1.125000 0.437500
v -0.500000 1.125000 -0.500000
v -0.125000 1.125000 -0.500000
v 0.062500 1.125000 -0.500000
v 0.062500 1.062500 -0.500000
v 0.437500 1.125000 -0.500000
v -0.187500 0.062500 0.375000
v -0.125000 0.125000 0.375000
v -0.125000 0.062500 0.375000
v -0.500000 0.187500 0.375000
v -0.187500 0.187500 0.375000
v -0.187500 0.250000 0.375000
v -0.125000 0.187500 0.375000
v 0.062500 0.187500 0.375000
v 0.062500 0.250000 0.375000
v 0.125000 0.187500 0.375000
v 0.437500 0.250000 0.375000
v 0.437500 0.187500 0.375000
v 0.437500 0.812500 0.375000
v -0.125000 1.000000 0.375000
v -0.312500 0.125000 0.375000
v -0.375000 0.125000 0.375000
v 0.125000 0.125000 0.375000
v 0.375000 0.187500 0.375000
v -0.437500 0.250000 0.375000
v 0.125000 0.250000 0.375000
v -0.187500 0.312500 0.375000
v 0.125000 0.312500 0.375000
v 0.375000 0.312500 0.375000
v 0.187500 0.125000 0.375000
v 0.250000 0.125000 0.375000
v 0.250000 0.062500 0.375000
v 0.437500 0.937500 0.375000
vn -1.0000 0.0000 0.0000
vn 1.0000 0.0000 0.0000
vn 0.0000 0.0000 1.0000
vn 0.0000 1.0000 0.0000
vn 0.0000 -1.0000 0.0000
vn 0.0000 0.0000 -1.0000
usemtl DoublePcCase_#243
s off
f 83//1 130//1 82//1 73//1 69//1 70//1
f 94//2 102//2 116//2 111//2
f 83//3 89//3 90//3 106//3 107//3 104//3 105//3 87//3 65//3 68//3 66//3 81//3
f 105//4 98//4 97//4 87//4
f 3//2 21//2 22//2 31//2
f 72//2 76//2 88//2 81//2 66//2 67//2
f 6//1 23//1 118//1 119//1
f 10//2 24//2 25//2 26//2
f 28//1 29//1 46//1 14//1
f 111//4 116//4 114//4 108//4 110//4
f 130//5 83//5 81//5 88//5
f 34//2 35//2 32//2 33//2
f 30//4 33//4 32//4 120//4
f 31//5 22//5 35//5 34//5
f 36//4 39//4 123//4 121//4
f 37//1 36//1 121//1 38//1
f 37//5 38//5 118//5 23//5
f 42//2 133//2 126//2 41//2
f 40//4 41//4 126//4 124//4
f 26//5 25//5 133//5 42//5
f 45//4 52//4 128//4 134//4
f 43//1 45//1 134//1 44//1
f 43//5 44//5 46//5 29//5
f 116//6 102//6 103//6 20//6 19//6 101//6 115//6 114//6
f 30//2 120//2 47//2 48//2
f 39//1 50//1 49//1 123//1
f 40//2 124//2 125//2 57//2
f 52//1 53//1 127//1 128//1
f 80//1 95//1 86//1 143//1 79//1 129//1 75//1
f 55//2 135//2 54//2 61//2
f 48//5 47//5 135//5 55//5
f 56//1 62//1 137//1 122//1
f 56//5 122//5 49//5 50//5
f 58//2 136//2 138//2 63//2
f 57//5 125//5 136//5 58//5
f 59//1 64//1 139//1 60//1
f 59//5 60//5 127//5 53//5
f 28//4 14//4 13//4 142//4 12//4 11//4 24//4 10//4
f 15//3 27//3 29//3 28//3 16//3
f 137//5 62//5 61//5 54//5
f 139//5 64//5 63//5 138//5
f 90//4 100//4 99//4 106//4
f 96//2 85//2 27//2 15//2 20//2 103//2
f 101//1 19//1 9//1 91//1
f 87//1 97//1 17//1 1//1 65//1
f 106//2 99//2 113//2 107//2
f 109//4 115//4 101//4 91//4
f 3//4 6//4 119//4 117//4 5//4 4//4 2//4 21//4
f 77//2 78//2 84//2 92//2 74//2 71//2
f 51//3 39//3 36//3 37//3 23//3 6//3 7//3 8//3
f 9//3 16//3 28//3 10//3 26//3 42//3 41//3 40//3 57//3 58//3 63//3 64//3 59//3 53//3 52//3 45//3 43//3 29//3 27//3 85//3 80//3 75//3 74//3 92//3 93//3 110//3 108//3 109//3 91//3
f 66//4 70//4 69//4 67//4
f 110//3 93//3 95//3 80//3 85//3 96//3 94//3 111//3
f 8//5 7//5 1//5 17//5 18//5
f 96//4 103//4 102//4 94//4
f 74//4 75//4 129//4 71//4
f 7//3 6//3 3//3 31//3 34//3 33//3 30//3 48//3 55//3 61//3 62//3 56//3 50//3 39//3 51//3 89//3 83//3 70//3 66//3 68//3 65//3 1//3
f 15//5 16//5 9//5 19//5 20//5
f 86//5 95//5 93//5 92//5 84//5
f 113//6 99//6 100//6 18//6 17//6 97//6 98//6 112//6
f 108//1 114//1 115//1 109//1
f 112//1 98//1 105//1 104//1
f 107//4 113//4 112//4 104//4
f 51//2 8//2 18//2 100//2 90//2 89//2
usemtl DoublePcCase_#246
f 129//3 79//3 77//3 71//3
f 78//3 143//3 86//3 84//3
f 21//3 2//3 35//3 22//3
f 117//3 119//3 118//3 38//3
f 24//3 11//3 133//3 25//3
f 13//3 14//3 46//3 44//3
f 120//3 32//3 135//3 47//3
f 121//3 123//3 49//3 122//3
f 124//3 126//3 136//3 125//3
f 134//3 128//3 127//3 60//3
f 69//3 73//3 72//3 67//3
f 76//3 82//3 130//3 88//3
usemtl DoublePcCase_#251
f 122//3 137//3 54//3 135//3 32//3 35//3 2//3 4//3 132//3 131//3 5//3 117//3 38//3 121//3
f 126//3 133//3 11//3 12//3 140//3 141//3 142//3 13//3 44//3 134//3 60//3 139//3 138//3 136//3
usemtl DoublePcCase_#62
f 4//3 5//3 131//3 132//3
f 12//3 142//3 141//3 140//3
usemtl DoublePcCase_#254
f 72//3 73//3 82//3 76//3
f 77//3 79//3 143//3 78//3
