# Blender v3.0.0 OBJ File: 'AllModelsFileConverter.blend'
# www.blender.org
mtllib sideboard.mtl
o sideboard_sideboard.004
v -6.296252 0.062500 0.928063
v -6.296252 0.000000 0.990563
v -6.233752 0.062500 0.990563
v -6.233752 0.062500 0.928063
v -4.858752 0.000000 0.928063
v -4.858752 0.000000 0.990563
v -4.171252 0.000000 0.990563
v -4.171252 0.062500 0.928063
v -6.233752 0.000000 0.928063
v -4.233752 0.000000 0.928063
v -4.171252 0.062500 0.178063
v -6.296252 0.062500 0.178063
v -6.296252 0.000000 0.115563
v -6.233752 0.062500 0.115563
v -6.233752 0.000000 0.178063
v -5.921252 0.000000 0.115563
v -4.233752 0.062500 0.115563
v -4.233752 0.062500 0.178063
v -4.233752 0.000000 0.178063
v -4.171252 0.000000 0.115563
v -4.233752 0.062500 0.928063
v -4.233752 0.062500 0.990563
v -6.233752 0.187500 0.928063
v -6.296252 0.187500 0.928063
v -4.171252 0.187500 0.928063
v -4.233752 0.187500 0.990563
v -4.171252 0.187500 0.990563
v -6.233752 0.187500 0.115563
v -6.296252 0.187500 0.178063
v -4.171252 0.187500 0.178063
v -4.233752 0.187500 0.178063
v -5.171252 0.312500 1.115563
v -5.108752 0.312500 1.115563
v -5.108752 0.250000 1.115563
v -5.046252 0.312500 1.115563
v -5.046252 0.250000 1.115563
v -4.108752 0.312500 1.115563
v -4.046252 0.250000 1.115563
v -6.358752 0.312500 1.115563
v -6.358752 0.312500 1.053063
v -5.296252 0.312500 1.115563
v -5.296252 0.312500 1.053063
v -5.171252 0.312500 1.053063
v -6.358752 0.687500 1.053063
v -6.358752 0.687500 1.115563
v -6.421252 0.750000 1.115563
v -5.921252 0.687500 1.053063
v -5.421252 0.687500 1.115563
v -5.296252 0.687500 1.115563
v -5.296252 0.750000 1.115563
v -5.171252 0.687500 1.115563
v -5.171252 0.687500 1.053063
v -4.546252 0.687500 1.053063
v -4.108752 0.687500 1.053063
v -4.108752 0.687500 1.115563
v -5.921252 0.000000 0.178063
v -6.233752 0.062500 0.178063
v -6.233752 0.187500 0.178063
v -4.233752 0.187500 0.928063
v -4.108752 0.312500 1.053063
v -5.921252 0.625000 1.053063
v -5.296252 0.687500 1.053063
v -4.546252 0.625000 1.053063
v -6.483752 0.187500 1.178063
v -6.421252 0.250000 1.115563
v -6.421252 0.250000 1.178063
v -5.358752 0.187500 1.178063
v -4.483752 0.187500 1.178063
v -3.983752 0.187500 1.178063
v -6.296252 0.187500 0.990563
v -6.233752 0.187500 0.990563
v -5.671252 0.187500 0.990563
v -4.546252 0.187500 0.990563
v -4.171252 0.187500 0.115563
v -6.296252 0.187500 0.115563
v -4.233752 0.187500 0.115563
v -6.483752 0.187500 -0.071937
v -3.983752 0.187500 -0.071937
v -4.046252 0.250000 1.178063
v -6.483752 0.437500 1.178063
v -6.421252 0.437500 1.178063
v -4.046252 0.750000 1.178063
v -6.483752 0.812500 1.178063
v -6.421252 0.750000 1.178063
v -5.421252 0.750000 1.115563
v -4.421252 0.812500 1.178063
v -4.421252 0.750000 1.178063
v -4.046252 0.750000 1.115563
v -3.983752 0.812500 1.178063
v -6.483752 0.812500 -0.071937
v -3.983752 0.812500 -0.071937
v -5.733752 0.687500 1.053063
v -5.733752 0.625000 1.053063
v -4.733752 0.625000 1.053063
v -4.733752 0.687500 1.053063
vn 0.0000 0.0000 -1.0000
vn 0.0000 -1.0000 0.0000
vn -0.0000 0.0000 1.0000
vn 0.0000 1.0000 0.0000
vn 1.0000 0.0000 0.0000
vn -1.0000 0.0000 0.0000
usemtl sideboard_#15
s off
f 21//1 59//1 25//1 8//1
f 47//2 92//2 62//2 49//2 48//2 45//2 44//2
f 51//3 55//3 37//3 35//3 36//3 38//3 88//3 50//3 49//3 41//3 39//3 45//3 48//3 85//3 46//3 65//3 34//3 33//3 32//3
f 34//3 36//3 35//3 33//3
f 11//3 30//3 31//3 18//3
f 18//4 17//4 14//4 57//4
f 16//1 13//1 75//1 28//1 14//1 17//1 76//1 74//1 20//1
f 1//1 24//1 23//1 4//1
f 4//5 23//5 71//5 3//5
f 31//6 76//6 17//6 18//6
f 37//6 55//6 54//6 60//6
f 58//3 29//3 12//3 57//3
f 22//6 26//6 59//6 21//6
f 7//3 27//3 26//3 22//3 3//3 71//3 70//3 2//3 6//3
f 49//6 62//6 42//6 41//6
f 8//5 25//5 27//5 7//5 20//5 74//5 30//5 11//5
f 16//2 20//2 7//2 6//2 5//2 10//2 19//2 56//2
f 40//5 44//5 45//5 39//5
f 37//4 60//4 43//4 32//4 33//4 35//4
f 39//4 41//4 42//4 40//4
f 28//5 58//5 57//5 14//5
f 9//2 5//2 6//2 2//2 13//2 16//2 56//2 15//2
f 8//4 11//4 18//4 21//4
f 52//2 95//2 53//2 54//2 55//2 51//2
f 49//3 50//3 85//3 48//3
f 57//4 12//4 1//4 4//4
f 43//5 52//5 51//5 32//5
f 1//6 12//6 29//6 75//6 13//6 2//6 70//6 24//6
f 22//4 21//4 4//4 3//4
usemtl sideboard_#243
f 31//2 30//2 25//2 59//2
f 59//2 26//2 73//2 72//2 71//2 23//2
f 60//3 54//3 53//3 63//3 94//3 95//3 52//3 43//3
f 62//3 92//3 93//3 61//3 47//3 44//3 40//3 42//3
f 59//3 23//3 4//3 21//3
f 58//1 31//1 18//1 57//1
f 29//2 58//2 23//2 24//2
f 31//5 59//5 21//5 18//5
f 28//2 76//2 31//2 58//2
f 58//6 57//6 4//6 23//6
f 56//2 19//2 10//2 5//2 9//2 15//2
usemtl sideboard_#248
f 84//3 87//3 86//3 83//3 80//3 81//3
f 66//4 79//4 38//4 36//4 34//4 65//4
f 90//6 77//6 64//6 80//6 83//6
f 72//2 67//2 64//2 77//2 78//2 69//2 68//2 73//2 26//2 27//2 25//2 30//2 74//2 76//2 28//2 75//2 29//2 24//2 70//2 71//2
f 46//2 85//2 50//2 88//2 82//2 87//2 84//2
f 67//3 68//3 69//3 89//3 86//3 87//3 82//3 79//3 66//3 81//3 80//3 64//3
f 65//5 46//5 84//5 81//5 66//5
f 83//4 86//4 89//4 91//4 90//4
f 68//2 67//2 72//2 73//2
f 78//5 91//5 89//5 69//5
f 82//6 88//6 38//6 79//6
f 91//1 78//1 77//1 90//1
usemtl sideboard_#246
f 94//3 63//3 53//3 95//3
f 93//3 92//3 47//3 61//3
