# Blender v3.0.0 OBJ File: 'AllModelsFileConverter.blend'
# www.blender.org
mtllib PlayerHouse2F.mtl
o LittlerootZimmer2F_LittlerootZimmer2F.024
v 7.937500 0.000000 -1.375000
v 7.937500 0.000000 -6.500000
v 7.625000 0.000000 -1.750000
v 7.625000 0.000000 -6.187500
v 7.062500 0.000000 -6.187500
v 7.000000 0.000000 -6.500000
v 3.437500 0.000000 -1.750000
v 3.062500 0.000000 -1.375000
v 3.000000 0.000000 -1.750000
v 3.000000 0.000000 -6.187500
v 2.625000 0.000000 -1.375000
v 2.625000 0.000000 -6.500000
v 7.625000 5.000000 -1.750000
v 7.437500 5.000000 -1.750000
v 5.187500 5.000000 -1.375000
v 5.187500 5.000000 -1.750000
v 5.000000 5.000000 -1.375000
v 3.000000 5.000000 -1.750000
v 2.625000 5.000000 -6.250000
v 7.937500 5.000000 6.437500
v 7.937500 5.000000 -1.375000
v 7.687500 5.000000 -1.375000
v 7.687500 5.000000 6.187500
v 2.625000 5.000000 -6.500000
v -2.250000 5.000000 6.437500
v -7.687500 5.000000 6.187500
v -7.687500 5.000000 -6.250000
v -7.937500 5.000000 6.437500
v -7.937500 5.000000 -6.500000
v 7.812500 5.312500 6.437500
v 7.625000 5.562500 6.125000
v 7.625000 5.562500 -6.187500
v 5.000000 5.562500 -1.375000
v 3.000000 5.562500 -1.750000
v -1.250000 5.562500 6.125000
v -7.625000 5.562500 6.125000
v -7.625000 5.562500 -6.187500
v 5.437500 5.937500 6.312500
v 5.437500 5.937500 6.187500
v 4.875000 5.937500 6.312500
v 4.875000 5.937500 6.187500
v -5.937500 5.937500 6.187500
v 5.437500 6.000000 6.312500
v 4.875000 6.000000 6.312500
v 4.875000 6.000000 6.187500
v -3.187500 5.937500 -6.375000
v -3.187500 5.937500 -6.250000
v -3.187500 6.000000 -6.250000
v -3.750000 5.937500 -6.250000
v -3.750000 5.937500 -6.375000
v -5.375000 5.937500 6.312500
v -5.375000 5.937500 6.187500
v -5.375000 6.000000 6.187500
v -5.937500 5.937500 6.312500
v 5.437500 6.000000 6.187500
v -3.187500 6.000000 -6.375000
v -3.750000 6.000000 -6.250000
v -3.750000 6.000000 -6.375000
v -5.375000 6.000000 6.312500
v -5.937500 6.000000 6.312500
v -5.937500 6.000000 6.187500
v 0.437500 6.500000 -6.500000
v 4.625000 6.562500 6.437500
v 6.750000 6.625000 6.437500
v 6.750000 6.625000 6.375000
v 6.750000 6.625000 6.125000
v 6.500000 6.625000 6.125000
v 4.625000 6.625000 6.125000
v 2.562500 6.625000 -6.187500
v 2.562500 6.625000 -6.437500
v 0.437500 6.625000 -6.187500
v 0.437500 6.625000 -6.250000
v 0.437500 6.625000 -6.437500
v 0.437500 6.625000 -6.500000
v -2.937500 6.625000 -6.250000
v -2.937500 6.625000 -6.500000
v -2.937500 6.625000 -6.437500
v -4.062500 6.625000 6.125000
v -4.062500 6.625000 6.375000
v -4.062500 6.625000 6.187500
v -5.062500 6.625000 -6.250000
v -6.187500 6.625000 6.375000
v 4.625000 6.625000 6.437500
v 2.562500 6.625000 -6.250000
v 2.562500 6.625000 -6.500000
v -2.937500 6.625000 -6.187500
v -4.062500 6.625000 6.437500
v -5.062500 6.625000 -6.187500
v -5.062500 6.625000 -6.500000
v -6.187500 6.625000 6.437500
v -6.187500 6.625000 6.187500
v -6.187500 6.625000 6.125000
v 6.750000 6.750000 6.437500
v -4.062500 6.875000 6.437500
v 6.750000 7.187500 6.125000
v 7.625000 7.562500 6.125000
v -6.187500 7.562500 6.125000
v -4.062500 7.812500 6.437500
v 2.625000 7.875000 -6.187500
v 2.562500 7.875000 -6.187500
v 6.750000 8.062500 6.375000
v 6.750000 8.062500 6.187500
v 4.625000 8.062500 6.437500
v 0.437500 8.062500 -6.250000
v 0.437500 8.062500 -6.437500
v -2.937500 8.062500 -6.187500
v -4.062500 8.062500 6.437500
v -4.062500 8.062500 6.125000
v -5.062500 8.062500 -6.187500
v -5.062500 8.062500 -6.437500
v -5.187500 8.062500 -6.500000
v -6.187500 8.062500 6.187500
v -6.187500 8.062500 6.125000
v -7.625000 8.000000 6.125000
v 6.750000 8.062500 6.437500
v 6.750000 8.062500 6.125000
v 4.625000 8.062500 6.375000
v 4.625000 8.062500 6.187500
v 4.625000 8.062500 6.125000
v 2.562500 8.062500 -6.187500
v 2.562500 8.062500 -6.500000
v 2.062500 8.062500 -6.187500
v 1.500000 8.062500 -6.500000
v 0.437500 8.062500 -6.187500
v 0.437500 8.062500 -6.500000
v -2.937500 8.062500 -6.250000
v -2.937500 8.062500 -6.437500
v -2.937500 8.062500 -6.500000
v -3.062500 8.062500 -6.500000
v -3.625000 8.062500 -6.187500
v -4.312500 8.062500 -6.187500
v -5.062500 8.062500 -6.500000
v -6.187500 8.062500 6.375000
v -6.187500 8.062500 6.437500
v 7.625000 8.125000 -1.375000
v 7.625000 8.125000 -1.312500
v 7.625000 8.125000 -1.812500
v 7.625000 8.125000 -1.750000
v 5.062500 8.125000 -1.375000
v 5.062500 8.125000 -1.750000
v 5.062500 8.187500 -1.750000
v -6.187500 8.125000 6.125000
v 7.562500 8.187500 -1.375000
v 7.500000 8.250000 -1.750000
v 5.125000 8.187500 -1.375000
v 5.062500 8.187500 -1.375000
v 5.125000 8.187500 -1.750000
v 5.125000 8.250000 -1.375000
v 5.125000 8.250000 -1.750000
v -3.062500 8.312500 -6.500000
v 7.625000 8.437500 6.125000
v 3.000000 8.437500 -6.187500
v 2.625000 8.437500 -1.375000
v 2.625000 8.437500 -6.187500
v 2.187500 8.437500 -6.187500
v -3.687500 8.437500 -6.187500
v -4.125000 8.437500 -6.187500
v -7.625000 8.437500 -6.187500
v -7.625000 8.437500 6.125000
v 7.875000 8.687500 6.375000
v 7.937500 8.687500 6.437500
v 7.875000 8.687500 2.937500
v 7.937500 8.687500 -6.500000
v 7.875000 8.687500 -6.437500
v 0.500000 8.687500 -6.500000
v -2.812500 8.687500 6.437500
v -4.812500 8.687500 -6.500000
v -7.875000 8.687500 6.375000
v -7.937500 8.687500 6.437500
v -7.937500 8.687500 0.375000
v -7.937500 8.687500 -2.562500
v -7.875000 8.687500 -2.562500
v -7.937500 8.687500 -6.500000
v 7.625000 5.000000 6.125000
v 7.625000 5.000000 -1.375000
v 7.625000 5.000000 -6.187500
v 3.000000 5.000000 -6.187500
v 2.625000 5.000000 -1.375000
v 2.625000 5.000000 -6.187500
v -7.625000 5.000000 6.125000
v -7.625000 5.000000 -6.187500
v 5.000000 5.562500 -1.750000
v 3.000000 5.562500 -6.187500
v 2.625000 5.562500 -1.375000
v 2.625000 5.562500 -6.187500
v 7.625000 5.000000 -1.312500
v 7.562500 5.000000 -1.812500
v 7.625000 5.000000 -1.812500
v 7.437500 5.000000 -1.312500
v 7.437500 5.000000 -1.812500
v 5.187500 5.000000 -1.312500
v 5.187500 5.000000 -1.812500
v 5.062500 5.000000 -1.312500
v 5.062500 5.000000 -1.812500
v 5.000000 5.000000 -1.312500
v 5.000000 5.000000 -1.812500
v 5.000000 5.000000 -1.750000
v 7.625000 5.562500 -1.312500
v 7.625000 5.562500 -1.812500
v 7.437500 8.062500 -1.375000
v 7.437500 8.062500 -1.312500
v 7.437500 8.062500 -1.812500
v 5.187500 8.062500 -1.750000
v 7.562500 8.125000 -1.375000
v 7.562500 8.125000 -1.750000
v 7.500000 8.062500 -1.875000
v 7.437500 8.125000 -1.875000
v 7.437500 8.062500 -1.750000
v 5.187500 8.062500 -1.312500
v 5.125000 8.062500 -1.250000
v 5.000000 8.125000 -1.312500
v 5.000000 8.125000 -1.375000
v 5.000000 8.125000 -1.812500
v 5.000000 8.125000 -1.750000
v 7.500000 8.187500 -1.375000
v 7.562500 8.125000 -1.312500
v 7.562500 8.187500 -1.312500
v 7.562500 8.125000 -1.812500
v 7.562500 8.187500 -1.812500
v 7.500000 8.187500 -1.750000
v 7.562500 8.187500 -1.750000
v 5.062500 8.125000 -1.312500
v 5.062500 8.187500 -1.312500
v 5.125000 8.187500 -1.312500
v 5.062500 8.125000 -1.812500
v 5.062500 8.187500 -1.812500
v 7.500000 8.250000 -1.312500
v 7.500000 8.250000 -1.375000
v 7.500000 8.250000 -1.812500
v 5.125000 8.250000 -1.312500
v 5.125000 8.187500 -1.812500
v 5.125000 8.250000 -1.812500
v 7.562500 5.000000 -1.250000
v 7.562500 5.000000 -1.312500
v 7.562500 5.000000 -1.875000
v 7.437500 5.000000 -1.250000
v 7.437500 5.000000 -1.375000
v 7.437500 5.000000 -1.875000
v 5.187500 5.000000 -1.250000
v 5.187500 5.000000 -1.875000
v 5.062500 5.000000 -1.250000
v 5.062500 5.000000 -1.875000
v 7.500000 8.062500 -1.250000
v 7.437500 8.062500 -1.250000
v 5.187500 8.062500 -1.250000
v 5.125000 8.062500 -1.875000
v 5.187500 8.062500 -1.875000
v 5.187500 8.062500 -1.812500
v 7.562500 8.125000 -1.250000
v 7.562500 8.125000 -1.875000
v 7.437500 8.062500 -1.875000
v 5.187500 8.062500 -1.375000
v 5.062500 8.125000 -1.250000
v 5.125000 8.125000 -1.312500
v 5.125000 8.125000 -1.250000
v 5.125000 8.125000 -1.875000
v 5.125000 8.125000 -1.812500
v 5.062500 8.125000 -1.875000
v 7.500000 8.187500 -1.312500
v 7.500000 8.125000 -1.250000
v 7.500000 8.187500 -1.250000
v 7.500000 8.125000 -1.312500
v 7.500000 8.187500 -1.875000
v 7.500000 8.125000 -1.812500
v 7.500000 8.187500 -1.812500
v 7.500000 8.125000 -1.875000
v 7.437500 8.125000 -1.250000
v 5.187500 8.125000 -1.250000
v 5.125000 8.187500 -1.250000
v 5.187500 8.125000 -1.875000
v 5.125000 8.187500 -1.875000
v 6.750000 6.625000 6.187500
v 6.687500 6.687500 6.375000
v 6.687500 6.687500 6.312500
v 6.125000 6.625000 6.375000
v 6.125000 6.687500 6.375000
v 4.687500 6.687500 6.187500
v 4.625000 6.625000 6.375000
v 4.625000 6.625000 6.187500
v 2.500000 6.687500 -6.375000
v 2.500000 6.687500 -6.437500
v 2.062500 6.625000 -6.437500
v 2.062500 6.687500 -6.437500
v 1.875000 6.625000 -6.250000
v 1.875000 6.687500 -6.250000
v 0.500000 6.687500 -6.437500
v -3.000000 6.687500 -6.250000
v -4.250000 6.625000 6.187500
v -4.250000 6.687500 6.187500
v -5.000000 6.687500 -6.375000
v -5.000000 6.687500 -6.250000
v -5.062500 6.625000 -6.437500
v -5.750000 6.625000 6.375000
v -5.750000 6.687500 6.375000
v -6.125000 6.687500 6.250000
v -6.125000 6.687500 6.375000
v 6.687500 6.687500 6.187500
v 4.687500 6.687500 6.375000
v 2.500000 6.687500 -6.312500
v 2.500000 6.687500 -6.250000
v 0.500000 6.687500 -6.250000
v 0.500000 6.687500 -6.312500
v -3.000000 6.687500 -6.437500
v -3.000000 6.687500 -6.375000
v -4.125000 6.687500 6.312500
v -4.125000 6.687500 6.375000
v -4.125000 6.687500 6.187500
v -5.000000 6.687500 -6.312500
v -5.000000 6.687500 -6.437500
v -6.125000 6.687500 6.187500
v -3.000000 6.812500 -6.437500
v -2.937500 6.812500 -6.437500
v -4.125000 7.000000 6.375000
v -4.062500 7.000000 6.375000
v 6.687500 7.187500 6.187500
v 6.750000 7.187500 6.187500
v -5.062500 7.250000 -6.250000
v -5.000000 7.250000 -6.250000
v 4.625000 7.500000 6.187500
v 4.687500 7.500000 6.187500
v 4.625000 7.687500 6.375000
v 4.687500 7.687500 6.375000
v -5.062500 7.687500 -6.437500
v -5.000000 7.687500 -6.437500
v 2.500000 7.812500 -6.250000
v 2.562500 7.812500 -6.250000
v 4.687500 8.000000 6.375000
v 2.500000 8.000000 -6.312500
v 0.500000 8.000000 -6.250000
v 0.500000 8.000000 -6.437500
v -3.000000 8.000000 -6.312500
v -4.125000 8.000000 6.375000
v -5.000000 8.000000 -6.312500
v -6.125000 8.000000 6.187500
v 6.687500 8.000000 6.375000
v 6.687500 8.000000 6.187500
v 4.687500 8.000000 6.187500
v 4.687500 8.000000 6.250000
v 2.562500 8.062500 -6.250000
v 2.500000 8.000000 -6.437500
v 2.562500 8.062500 -6.437500
v 2.500000 8.000000 -6.250000
v 1.062500 8.000000 -6.437500
v 1.062500 8.062500 -6.437500
v 0.500000 8.000000 -6.312500
v 0.500000 8.000000 -6.375000
v -3.000000 8.000000 -6.250000
v -3.000000 8.000000 -6.437500
v -3.000000 8.000000 -6.375000
v -3.250000 8.000000 -6.250000
v -3.250000 8.062500 -6.250000
v -4.062500 8.062500 6.375000
v -4.125000 8.000000 6.187500
v -4.062500 8.062500 6.187500
v -5.000000 8.000000 -6.250000
v -5.000000 8.000000 -6.437500
v -5.000000 8.000000 -6.375000
v -5.062500 8.062500 -6.250000
v -5.500000 8.000000 6.187500
v -5.500000 8.062500 6.187500
v -6.125000 8.000000 6.375000
v -6.125000 8.000000 6.312500
v 6.687500 6.687500 6.250000
v 4.687500 6.687500 6.250000
v 4.687500 6.687500 6.312500
v 0.500000 6.687500 -6.375000
v -3.000000 6.687500 -6.312500
v -4.125000 6.687500 6.250000
v -6.125000 6.687500 6.312500
v 6.687500 8.000000 6.250000
v 6.687500 8.000000 6.312500
v 4.687500 8.000000 6.312500
v 2.500000 8.000000 -6.375000
v -4.125000 8.000000 6.250000
v -4.125000 8.000000 6.312500
v -6.125000 8.000000 6.250000
v 7.625000 8.437500 -6.187500
v 7.625000 8.437500 -1.375000
v 7.625000 8.437500 -1.750000
v 3.000000 8.437500 -1.750000
v -6.000000 8.437500 6.125000
v 7.625000 8.562500 6.125000
v 7.625000 8.562500 -1.375000
v 7.625000 8.562500 -1.750000
v 7.625000 8.562500 -6.187500
v 5.500000 8.562500 -6.187500
v 5.500000 8.562500 -6.250000
v 3.000000 8.562500 -1.750000
v 2.937500 8.562500 -5.937500
v 3.000000 8.562500 -5.937500
v 3.000000 8.562500 -6.187500
v 2.937500 8.562500 -6.250000
v 2.687500 8.562500 -1.437500
v 2.625000 8.562500 -1.375000
v 2.625000 8.562500 -6.187500
v -7.625000 8.562500 6.125000
v -7.687500 8.562500 6.187500
v -7.687500 8.562500 0.125000
v -7.625000 8.562500 0.125000
v -7.687500 8.562500 -2.437500
v -7.625000 8.562500 -2.437500
v -7.625000 8.562500 -6.187500
v 7.750000 8.687500 6.375000
v 7.750000 8.687500 2.937500
v 7.750000 8.687500 -1.500000
v 7.750000 8.625000 -1.625000
v 7.750000 8.687500 -1.625000
v 7.750000 8.625000 6.250000
v 7.750000 8.687500 6.250000
v 7.750000 8.687500 -6.312500
v 4.000000 8.687500 -1.500000
v 3.875000 8.687500 -1.625000
v 2.875000 8.687500 -1.625000
v 2.875000 8.687500 -6.312500
v 2.875000 8.687500 -3.000000
v 2.875000 8.625000 -6.312500
v 2.750000 8.687500 -1.500000
v 2.750000 8.687500 -3.000000
v 2.750000 8.625000 -6.312500
v 2.750000 8.687500 -6.312500
v -7.750000 8.625000 -6.312500
v -7.750000 8.625000 6.250000
v -7.750000 8.687500 6.250000
v -7.750000 8.687500 -6.312500
v -7.875000 8.687500 0.375000
v -7.875000 8.687500 -6.437500
v 7.687500 8.625000 6.187500
v 7.750000 8.625000 -1.500000
v 7.687500 8.625000 -5.812500
v 7.750000 8.625000 -5.812500
v 7.687500 8.562500 -6.250000
v 7.750000 8.625000 -6.312500
v 7.687500 8.562500 6.187500
v 7.687500 8.562500 -1.437500
v 7.687500 8.625000 -1.437500
v 7.687500 8.562500 -1.687500
v 7.687500 8.625000 -1.687500
v 7.687500 8.625000 -6.250000
v 2.937500 8.562500 -1.687500
v 2.937500 8.625000 -1.687500
v 2.875000 8.625000 -1.625000
v 2.875000 8.625000 -4.875000
v 2.937500 8.625000 -4.875000
v 2.937500 8.625000 -6.250000
v 2.750000 8.625000 -1.500000
v 2.687500 8.625000 -1.437500
v 2.687500 8.562500 -6.250000
v 2.687500 8.625000 -6.250000
v -7.687500 8.625000 6.187500
v -7.687500 8.625000 -0.687500
v -7.750000 8.625000 -0.687500
v -7.750000 8.625000 -4.125000
v -7.687500 8.625000 -4.125000
v -7.687500 8.625000 -6.250000
v -7.687500 8.562500 -6.250000
vn 0.0000 1.0000 0.0000
vn 0.0000 -1.0000 0.0000
vn -0.0000 -0.0000 -1.0000
vn 0.0000 0.0000 1.0000
vn 1.0000 0.0000 -0.0000
vn -1.0000 0.0000 0.0000
usemtl LittlerootZimmer2F_#22
s off
f 81//1 88//1 86//1 75//1
f 124//2 104//2 339//2 120//2 122//2
f 52//2 51//2 54//2 42//2
f 165//3 163//3 2//3 6//3 12//3 24//3 29//3 173//3 167//3 111//3 132//3 89//3 76//3 128//3 129//3 150//3 62//3 74//3 85//3 121//3 123//3
f 155//4 122//4 120//4 100//4 99//4 154//4
f 52//3 42//3 61//3 53//3
f 45//1 44//1 43//1 55//1
f 10//5 177//5 18//5 9//5
f 316//6 102//6 116//6 95//6 66//6 272//6
f 114//3 159//3 381//3 142//3 113//3 97//3
f 61//1 60//1 59//1 53//1
f 152//5 380//5 34//5 183//5
f 127//2 110//2 132//2 129//2 128//2
f 179//6 19//6 24//6 12//6 11//6 178//6
f 74//5 125//5 105//5 73//5
f 132//3 111//3 167//3 165//3 123//3 125//3 74//3 62//3 150//3 129//3
f 68//3 67//3 35//3 36//3 114//3 97//3 92//3 78//3 108//3 113//3 142//3 381//3 151//3 96//3 95//3 116//3 119//3
f 74//1 73//1 282//1 70//1 85//1
f 177//4 10//4 5//4 4//4 176//4
f 172//1 171//1 170//1 425//1
f 360//2 112//2 113//2 108//2 354//2
f 50//2 46//2 47//2 49//2
f 94//4 63//4 83//4 103//4 115//4 93//4 30//4 25//4 20//4 161//4 166//4 98//4
f 173//6 29//6 28//6 169//6 170//6 171//6
f 29//2 24//2 19//2 27//2 26//2 23//2 22//2 21//2 20//2 25//2 28//2
f 133//5 134//5 90//5 82//5
f 131//2 109//2 358//2 351//2 126//2 106//2 130//2
f 12//2 6//2 5//2 10//2 9//2 7//2 8//2 11//2
f 183//4 32//4 377//4 152//4
f 115//2 103//2 117//2 101//2
f 105//2 125//2 123//2 121//2 341//2 344//2
f 68//1 279//1 272//1 66//1 67//1
f 56//1 58//1 57//1 48//1
f 72//5 104//5 124//5 71//5
f 58//6 50//6 49//6 57//6
f 199//6 137//6 138//6 379//6 377//6 32//6
f 44//4 40//4 38//4 43//4
f 98//6 107//6 352//6 314//6 79//6 87//6 94//6
f 16//1 15//1 237//1 14//1
f 321//5 117//5 103//5 83//5 278//5
f 34//3 380//3 379//3 138//3 205//3 221//3 220//3 144//3 149//3 147//3 141//3 140//3 214//3 182//3
f 198//6 31//6 96//6 151//6 378//6 135//6 136//6
f 46//5 56//5 48//5 47//5
f 185//6 184//6 153//6 154//6 99//6
f 89//1 292//1 77//1 76//1
f 60//6 61//6 42//6 54//6
f 118//2 119//2 116//2 102//2
f 80//6 354//6 108//6 78//6
f 358//5 109//5 88//5 81//5 317//5
f 341//6 121//6 85//6 70//6
f 115//6 101//6 65//6 64//6 93//6
f 35//3 67//3 66//3 95//3 96//3 31//3
f 127//6 128//6 76//6 77//6 312//6
f 45//6 41//6 40//6 44//6
f 161//1 163//1 165//1 167//1 173//1 171//1 172//1 426//1 164//1 162//1 160//1 403//1 168//1 425//1 170//1 169//1 166//1
f 169//4 28//4 25//4 30//4 93//4 64//4 83//4 63//4 94//4 87//4 90//4 134//4 107//4 98//4 166//4
f 52//5 53//5 59//5 51//5
f 92//5 97//5 113//5 112//5 91//5
f 82//1 90//1 87//1 79//1 293//1
f 184//4 33//4 212//4 139//4 146//4 145//4 148//4 228//4 215//4 143//4 204//4 135//4 378//4 153//4
f 100//6 120//6 339//6 326//6 84//6 69//6
f 37//5 158//5 159//5 114//5 36//5
f 119//5 118//5 319//5 279//5 68//5
f 39//5 55//5 43//5 38//5
f 134//2 133//2 352//2 107//2
f 57//4 49//4 47//4 48//4
f 59//4 60//4 54//4 51//4
f 92//1 91//1 288//1 80//1 78//1
f 50//3 58//3 56//3 46//3
f 39//3 41//3 45//3 55//3
f 72//1 71//1 69//1 84//1 284//1
f 41//2 39//2 38//2 40//2
f 132//5 110//5 323//5 292//5 89//5
f 8//2 7//2 3//2 4//2 5//2 6//2 2//2 1//2
f 2//5 163//5 161//5 20//5 21//5 1//5
f 86//6 106//6 126//6 75//6
f 99//4 100//4 69//4 71//4 124//4 122//4 155//4 156//4 130//4 106//4 86//4 88//4 109//4 131//4 157//4 158//4 37//4 185//4
f 13//6 188//6 176//6 4//6 3//6
f 131//4 130//4 156//4 157//4
f 18//3 197//3 16//3 14//3 13//3 3//3 7//3 9//3
f 275//1 278//1 83//1 64//1 65//1
f 178//4 11//4 8//4 1//4 21//4 22//4 175//4 237//4 15//4 17//4
usemtl LittlerootZimmer2F_#243
f 26//2 27//2 19//2 179//2 181//2 180//2 174//2 186//2 175//2 22//2 23//2
f 182//3 197//3 18//3 34//3
f 186//6 174//6 31//6 198//6
f 177//4 176//4 32//4 183//4
f 31//3 174//3 180//3 36//3 35//3
f 181//4 179//4 185//4 37//4
f 34//5 18//5 177//5 183//5
f 185//6 179//6 178//6 184//6
f 181//5 37//5 36//5 180//5
f 199//6 32//6 176//6 188//6
f 17//4 33//4 184//4 178//4
usemtl LittlerootZimmer2F_#15
f 265//3 231//3 232//3 229//3
f 252//5 209//5 191//5 15//5
f 193//4 222//4 211//4 195//4
f 234//2 189//2 237//2 175//2 186//2
f 196//3 213//3 225//3 194//3
f 192//5 248//5 203//5 16//5
f 232//1 149//1 144//1 229//1
f 209//2 252//2 200//2 201//2
f 201//6 200//6 237//6 189//6
f 195//6 211//6 212//6 33//6 17//6
f 230//4 224//4 259//4 227//4
f 136//4 216//4 234//4 186//4 198//4
f 187//3 218//3 137//3 199//3 188//3
f 14//6 208//6 202//6 190//6
f 191//2 193//2 195//2 17//2 15//2
f 16//2 197//2 196//2 194//2 192//2
f 228//1 148//1 230//1 227//1
f 136//1 135//1 204//1 216//1
f 138//1 137//1 218//1 205//1
f 243//4 260//4 267//4 244//4
f 206//3 251//3 207//3 266//3
f 14//2 190//2 187//2 188//2 13//2
f 245//4 268//4 255//4 210//4
f 247//3 246//3 256//3 270//3
f 222//1 139//1 212//1 211//1
f 140//1 225//1 213//1 214//1
f 217//1 143//1 215//1 259//1
f 216//4 217//4 259//4 262//4
f 216//5 204//5 143//5 217//5
f 218//3 264//3 265//3 219//3
f 221//1 219//1 265//1 220//1
f 205//5 218//5 219//5 221//5
f 139//6 222//6 223//6 146//6
f 224//1 145//1 146//1 223//1
f 254//4 224//4 223//4 222//4
f 257//3 225//3 226//3 231//3
f 225//6 140//6 141//6 226//6
f 147//1 231//1 226//1 141//1
f 259//5 215//5 228//5 227//5
f 220//5 265//5 229//5 144//5
f 145//6 224//6 230//6 148//6
f 231//6 147//6 149//6 232//6
f 182//6 214//6 213//6 196//6 197//6
f 208//2 203//2 248//2 202//2
usemtl LittlerootZimmer2F_#5
f 208//2 200//2 252//2 203//2
f 245//4 244//4 267//4 260//4 261//4 269//4 255//4 268//4
f 190//2 238//2 235//2 187//2
f 259//1 224//1 269//1 261//1
f 245//2 209//2 201//2 244//2
f 240//5 247//5 248//5 192//5
f 235//5 250//5 218//5 187//5
f 242//3 258//3 256//3 246//3 247//3 240//3
f 233//2 236//2 189//2 234//2
f 209//5 245//5 239//5 191//5
f 236//6 244//6 201//6 189//6
f 16//5 203//5 252//5 15//5
f 249//4 260//4 243//4 244//4 236//4 233//4
f 241//6 253//6 222//6 193//6
f 251//3 206//3 266//3 250//3 235//3 238//3
f 239//2 241//2 193//2 191//2
f 241//4 239//4 245//4 210//4 255//4 253//4
f 202//2 248//2 247//2 251//2
f 271//3 263//3 266//3 207//3 251//3 247//3 270//3 256//3
f 200//6 208//6 14//6 237//6
f 225//6 258//6 242//6 194//6
f 249//1 216//1 262//1 260//1
f 218//1 250//1 266//1 264//1
f 255//1 254//1 222//1 253//1
f 257//1 256//1 258//1 225//1
f 260//5 262//5 259//5 261//5
f 264//5 266//5 263//5 265//5
f 216//5 249//5 233//5 234//5
f 254//6 255//6 269//6 224//6
f 256//6 257//6 231//6 271//6
f 190//6 202//6 251//6 238//6
f 271//1 231//1 265//1 263//1
f 192//2 194//2 242//2 240//2
usemtl LittlerootZimmer2F_#254
f 281//1 283//1 286//1 366//1 280//1
f 306//4 294//4 293//4 79//4 314//4 313//4
f 287//4 291//4 318//4 317//4 81//4 75//4 126//4 351//4 350//4 347//4
f 300//6 325//6 342//6 328//6 299//6
f 351//4 358//4 317//4 318//4 355//4 350//4
f 372//5 327//5 322//5 298//5 365//5
f 335//2 327//2 372//2 371//2
f 373//6 340//6 281//6 280//6
f 118//3 102//3 316//3 315//3 336//3 337//3 320//3 319//3
f 369//1 296//1 294//1 306//1 305//1
f 352//4 133//4 82//4 293//4 294//4 296//4 361//4 332//4 313//4 314//4
f 303//1 309//1 290//1 304//1
f 350//2 355//2 333//2 331//2 347//2
f 346//2 330//2 343//2 340//2 373//2
f 333//5 355//5 318//5 291//5 308//5
f 324//5 356//5 357//5 290//5 309//5
f 287//6 347//6 331//6 367//6
f 73//3 105//3 344//3 343//3 330//3 286//3 283//3 282//3
f 292//3 323//3 324//3 309//3 303//3 311//3 312//3 77//3
f 281//3 340//3 343//3 344//3 341//3 70//3 282//3 283//3
f 289//1 310//1 295//1 368//1 307//1
f 361//2 362//2 375//2 332//2
f 320//5 337//5 338//5 364//5 277//5
f 277//1 364//1 363//1 297//1
f 367//1 308//1 291//1 287//1
f 362//5 361//5 296//5 369//5
f 313//6 332//6 375//6 305//6 306//6
f 274//1 365//1 298//1 276//1 273//1
f 110//3 127//3 312//3 311//3 348//3 356//3 324//3 323//3
f 299//1 302//1 301//1 285//1 300//1
f 329//2 345//2 328//2 342//2
f 363//6 370//6 336//6 315//6 297//6
f 376//2 334//2 359//2 353//2 374//2
f 112//3 360//3 359//3 334//3 310//3 289//3 288//3 91//3
f 368//6 374//6 353//6 307//6
f 349//2 357//2 356//2 348//2
f 65//4 101//4 117//4 321//4 322//4 327//4 335//4 273//4 276//4 275//4
f 304//6 349//6 348//6 311//6 303//6
f 286//5 330//5 346//5 366//5
f 300//4 285//4 284//4 84//4 326//4 325//4
f 273//6 335//6 371//6 274//6
f 310//5 334//5 376//5 295//5
f 301//4 329//4 342//4 325//4 326//4 339//4 104//4 72//4 284//4 285//4
f 338//2 337//2 336//2 370//2
f 359//3 360//3 354//3 80//3 288//3 289//3 307//3 353//3
f 302//5 345//5 329//5 301//5
f 276//4 298//4 322//4 321//4 278//4 275//4
f 272//3 279//3 319//3 320//3 277//3 297//3 315//3 316//3
usemtl LittlerootZimmer2F_#100
f 367//4 331//4 333//4 308//4
f 372//4 365//4 274//4 371//4
f 304//3 290//3 357//3 349//3
f 376//3 374//3 368//3 295//3
f 280//3 366//3 346//3 373//3
f 299//4 328//4 345//4 302//4
f 305//4 375//4 362//4 369//4
f 363//3 364//3 338//3 370//3
usemtl LittlerootZimmer2F_#248
f 406//6 407//6 410//6 432//6 430//6
f 409//1 403//1 160//1 162//1 404//1
f 388//1 390//1 389//1 439//1 436//1 431//1 387//1 386//1 385//1 384//1
f 445//6 417//6 418//6 420//6 419//6
f 399//1 401//1 400//1 398//1
f 154//6 153//6 394//6 395//6
f 158//5 402//5 401//5 399//5 396//5 159//5
f 447//1 455//1 400//1 401//1 402//1 395//1 394//1 383//1 382//1 396//1 399//1 398//1 397//1 433//1 434//1 393//1
f 383//4 394//4 153//4 378//4
f 411//4 417//4 445//4 428//4 405//4
f 395//4 402//4 158//4 157//4 156//4 155//4 154//4
f 428//6 408//6 409//6 404//6 405//6
f 422//5 451//5 452//5 421//5 424//5 423//5
f 410//4 414//4 416//4 432//4
f 380//5 152//5 391//5 390//5 388//5
f 441//3 413//3 412//3 407//3 406//3
f 420//4 424//4 421//4 419//4
f 168//1 403//1 409//1 423//1 424//1 420//1 418//1 415//1 414//1 410//1 407//1 412//1 411//1 405//1 404//1 162//1 164//1 426//1 172//1 425//1
f 418//1 417//1 411//1 412//1 413//1 415//1
f 383//6 378//6 151//6 382//6
f 391//1 386//1 387//1 392//1 389//1 390//1
f 384//6 385//6 377//6 379//6
f 380//3 388//3 384//3 379//3
f 396//3 382//3 151//3 381//3 159//3
f 441//5 442//5 416//5 414//5 415//5 413//5
f 422//3 423//3 409//3 408//3
f 391//4 152//4 377//4 385//4 386//4
usemtl LittlerootZimmer2F_#14
f 448//4 454//4 455//4 447//4
f 432//1 416//1 442//1 443//1 444//1 438//1 429//1 430//1
f 436//6 437//6 429//6 438//6 431//6
f 439//5 389//5 392//5 444//5 443//5 440//5
f 449//1 450//1 451//1 422//1 408//1 428//1 445//1 419//1 421//1 452//1 453//1 454//1 448//1 446//1 435//1 427//1
f 398//5 400//5 455//5 454//5 453//5 450//5 449//5 397//5
f 439//3 440//3 437//3 436//3
f 435//4 446//4 393//4 434//4
f 433//6 427//6 435//6 434//6
f 397//3 449//3 427//3 433//3
f 393//6 446//6 448//6 447//6
f 453//1 452//1 451//1 450//1
f 438//4 444//4 392//4 387//4 431//4
f 437//1 440//1 443//1 442//1 441//1 406//1 430//1 429//1
