# Blender v3.0.1 OBJ File: 'AllModelsFileConverter2.blend'
# www.blender.org
mtllib Tree01_Upper.mtl
o Tree01_Upper
v -1.625000 4.062500 1.625000
v -1.625000 4.062500 1.562500
v 1.625000 4.062500 1.625000
v 1.625000 4.062500 1.562500
v -1.687500 4.062500 1.562500
v 1.687500 4.062500 1.562500
v -1.687500 4.062500 -1.562500
v -1.625000 4.062500 -1.562500
v 1.687500 4.062500 -1.562500
v -1.625000 4.062500 -1.625000
v 1.625000 4.062500 -1.562500
v 1.625000 4.062500 -1.625000
v -1.625000 4.937500 1.562500
v -1.625000 4.937500 1.625000
v 1.625000 4.937500 1.562500
v 1.625000 4.937500 1.625000
v -1.687500 4.937500 1.562500
v 1.687500 4.937500 1.562500
v -1.625000 4.937500 -1.562500
v -1.687500 4.937500 -1.562500
v 1.687500 4.937500 -1.562500
v -1.625000 4.937500 -1.625000
v 1.625000 4.937500 -1.625000
v 1.625000 4.937500 -1.562500
v -1.625000 5.000000 1.562500
v -0.875000 5.000000 1.562500
v -0.750000 5.000000 1.562500
v 1.062500 5.000000 1.562500
v 1.625000 5.000000 1.562500
v -0.750000 5.000000 1.437500
v -0.687500 5.000000 1.437500
v 0.750000 5.000000 1.312500
v 1.312500 5.000000 1.312500
v -0.937500 5.000000 1.250000
v 1.625000 5.000000 1.312500
v 1.312500 5.000000 1.187500
v -0.125000 5.000000 0.875000
v -0.687500 5.000000 0.875000
v -0.687500 5.000000 0.812500
v 1.312500 5.000000 0.750000
v 0.750000 5.000000 0.750000
v -0.375000 5.000000 0.562500
v 0.125000 5.000000 0.625000
v 0.125000 5.000000 0.562500
v -1.000000 5.000000 0.562500
v 0.875000 5.000000 0.312500
v -0.812500 5.000000 0.125000
v -0.875000 5.000000 0.062500
v -0.812500 5.000000 0.062500
v 0.125000 5.000000 0.125000
v 0.125000 5.000000 0.062500
v -0.187500 5.000000 0.062500
v -0.125000 5.000000 -0.062500
v 0.375000 5.000000 -0.062500
v -0.937500 5.000000 -0.250000
v 0.875000 5.000000 -0.250000
v 1.625000 5.000000 -0.312500
v -0.375000 5.000000 -0.437500
v -1.000000 5.000000 -0.437500
v -0.187500 5.000000 -0.500000
v 0.312500 5.000000 -0.500000
v 0.375000 5.000000 -0.500000
v 1.625000 5.000000 -0.500000
v 0.500000 5.000000 -0.687500
v -0.062500 5.000000 -0.687500
v 0.937500 5.000000 -0.812500
v 1.437500 5.000000 -0.812500
v 1.500000 5.000000 -0.812500
v -1.625000 5.000000 -0.937500
v -0.062500 5.000000 -1.187500
v -0.062500 5.000000 -1.250000
v -0.812500 5.000000 -1.312500
v -0.187500 5.000000 -1.312500
v 1.500000 5.000000 -1.375000
v 0.937500 5.000000 -1.375000
v -1.625000 5.000000 -1.562500
v -1.250000 5.000000 -1.562500
v 1.625000 5.000000 -1.562500
v -0.687500 5.062500 1.437500
v -0.125000 5.000000 1.437500
v -0.125000 5.062500 1.437500
v 0.750000 5.062500 1.312500
v 1.062500 5.000000 1.312500
v 1.312500 5.062500 1.312500
v -1.500000 5.062500 1.250000
v -1.500000 5.000000 1.250000
v -0.937500 5.062500 1.250000
v -1.000000 5.000000 1.250000
v -0.687500 5.062500 0.875000
v -0.125000 5.062500 0.875000
v 0.750000 5.062500 0.750000
v 1.312500 5.062500 0.750000
v -1.500000 5.000000 0.687500
v -1.500000 5.062500 0.687500
v -1.000000 5.000000 0.687500
v -0.937500 5.000000 0.687500
v -0.937500 5.062500 0.687500
v -0.312500 5.000000 0.562500
v -0.312500 5.000000 0.625000
v -0.312500 5.062500 0.625000
v 0.125000 5.062500 0.562500
v 0.125000 5.062500 0.625000
v -0.375000 5.062500 0.562500
v -0.312500 5.062500 0.562500
v 0.187500 5.062500 0.562500
v 0.187500 5.000000 0.562500
v -1.500000 5.062500 0.312500
v -1.500000 5.000000 0.312500
v -0.937500 5.062500 0.312500
v -0.937500 5.000000 0.312500
v 0.875000 5.062500 0.312500
v 1.437500 5.062500 0.312500
v 1.437500 5.000000 0.312500
v -0.312500 5.062500 0.125000
v -0.375000 5.062500 0.125000
v 0.187500 5.000000 0.125000
v 0.187500 5.062500 0.125000
v -0.812500 5.062500 0.125000
v -0.375000 5.062500 0.062500
v -0.375000 5.000000 0.125000
v -0.312500 5.062500 0.062500
v -0.312500 5.000000 0.125000
v 0.125000 5.062500 0.062500
v 0.125000 5.062500 0.125000
v -0.812500 5.062500 0.062500
v -0.875000 5.062500 0.062500
v -0.312500 5.000000 0.062500
v -0.375000 5.000000 0.062500
v -0.125000 5.062500 -0.062500
v -0.125000 5.062500 0.000000
v -0.125000 5.000000 0.000000
v 0.312500 5.062500 -0.062500
v 0.312500 5.062500 0.000000
v 0.312500 5.000000 0.000000
v -0.187500 5.062500 -0.062500
v -0.187500 5.000000 -0.062500
v 0.375000 5.062500 -0.062500
v 0.312500 5.000000 -0.062500
v -1.500000 5.062500 -0.250000
v -1.500000 5.000000 -0.250000
v -1.312500 5.000000 -0.250000
v -0.937500 5.062500 -0.250000
v 0.875000 5.062500 -0.250000
v 1.125000 5.000000 -0.250000
v 1.437500 5.062500 -0.250000
v 1.437500 5.000000 -0.250000
v 1.375000 5.000000 -0.250000
v -0.875000 5.000000 -0.250000
v -0.875000 5.000000 -0.375000
v -0.875000 5.062500 -0.375000
v -0.312500 5.000000 -0.375000
v -0.312500 5.062500 -0.375000
v -0.812500 5.000000 -0.375000
v -0.812500 5.000000 -0.437500
v -0.812500 5.062500 -0.437500
v -0.812500 5.062500 -0.375000
v -0.500000 5.000000 -0.437500
v -0.375000 5.000000 -0.375000
v -0.375000 5.062500 -0.375000
v -0.375000 5.062500 -0.437500
v -0.187500 5.062500 -0.500000
v -0.125000 5.062500 -0.500000
v 0.375000 5.062500 -0.500000
v -0.125000 5.000000 -0.500000
v -0.125000 5.000000 -0.562500
v -0.125000 5.062500 -0.562500
v 0.125000 5.000000 -0.562500
v 0.312500 5.062500 -0.562500
v 0.312500 5.062500 -0.500000
v 0.312500 5.000000 -0.562500
v -0.062500 5.062500 -0.687500
v 0.125000 5.000000 -0.687500
v 0.500000 5.062500 -0.687500
v -0.812500 5.062500 -0.750000
v -0.812500 5.000000 -0.750000
v -0.562500 5.000000 -0.750000
v -0.250000 5.000000 -0.750000
v -0.250000 5.062500 -0.750000
v 0.937500 5.062500 -0.812500
v 1.312500 5.000000 -0.812500
v 1.500000 5.062500 -0.812500
v -0.062500 5.062500 -1.250000
v 0.500000 5.000000 -1.250000
v 0.500000 5.062500 -1.250000
v -0.812500 5.062500 -1.312500
v -0.250000 5.000000 -1.312500
v -0.250000 5.062500 -1.312500
v 0.937500 5.062500 -1.375000
v 1.500000 5.062500 -1.375000
vn 0.0000 1.0000 0.0000
vn 1.0000 0.0000 0.0000
vn 0.0000 -1.0000 0.0000
vn 0.0000 0.0000 1.0000
vn 0.0000 0.0000 -1.0000
vn -1.0000 0.0000 0.0000
usemtl Tree01_Upper_#171
s off
f 33//1 83//1 28//1 29//1 35//1 36//1
f 15//2 24//2 78//2 63//2 57//2 35//2 29//2
f 77//1 76//1 69//1 141//1 55//1 148//1 149//1 153//1 154//1 59//1
f 30//1 31//1 38//1 39//1 45//1 95//1 96//1 34//1 88//1 26//1 27//1
f 1//3 2//3 5//3 7//3 8//3 10//3 12//3 11//3 9//3 6//3 4//3 3//3
f 13//1 19//1 20//1 17//1
f 16//4 14//4 1//4 3//4
f 20//5 19//5 8//5 7//5
f 26//1 88//1 86//1 93//1 95//1 45//1 39//1 38//1 37//1 80//1 31//1 30//1 27//1 28//1 83//1 32//1 41//1 40//1 36//1 35//1 57//1 147//1 146//1 113//1 46//1 56//1 144//1 180//1 66//1 75//1 74//1 68//1 67//1 63//1 78//1 77//1 59//1 154//1 157//1 176//1 175//1 72//1 186//1 73//1 70//1 71//1 183//1 64//1 172//1 167//1 170//1 61//1 62//1 54//1 138//1 134//1 131//1 53//1 136//1 52//1 51//1 50//1 116//1 106//1 44//1 43//1 99//1 98//1 42//1 120//1 47//1 49//1 48//1 148//1 55//1 110//1 108//1 140//1 141//1 69//1 25//1
f 25//6 69//6 76//6 19//6 13//6
f 22//5 23//5 12//5 10//5
f 24//5 21//5 9//5 11//5
f 15//4 29//4 28//4 27//4 26//4 25//4 13//4
f 6//2 9//2 21//2 18//2
f 7//6 5//6 17//6 20//6
f 16//1 15//1 13//1 14//1
f 180//1 144//1 147//1 57//1 63//1 67//1
f 24//5 19//5 76//5 77//5 78//5
f 6//4 18//4 15//4 4//4
f 8//6 19//6 22//6 10//6
f 24//1 23//1 22//1 19//1
f 15//2 16//2 3//2 4//2
f 12//2 23//2 24//2 11//2
f 136//1 60//1 164//1 165//1 167//1 172//1 65//1 70//1 73//1 186//1 177//1 176//1 157//1 58//1 158//1 151//1 127//1 52//1
f 13//4 17//4 5//4 2//4
f 18//1 21//1 24//1 15//1
f 120//1 122//1 127//1 128//1
f 14//6 13//6 2//6 1//6
usemtl Tree01_Upper_#172
f 90//1 89//1 79//1 81//1
f 179//6 188//6 75//6 66//6
f 88//4 34//4 87//4 85//4 86//4
f 171//6 182//6 71//6 70//6 65//6
f 113//4 112//4 111//4 46//4
f 115//6 120//6 42//6 103//6
f 43//4 102//4 100//4 99//4
f 79//6 89//6 38//6 31//6
f 71//5 182//5 184//5 183//5
f 176//4 177//4 178//4 174//4 175//4
f 93//5 94//5 97//5 96//5 95//5
f 157//5 154//5 155//5 160//5 58//5
f 151//2 152//2 121//2 127//2
f 184//1 182//1 171//1 173//1
f 183//2 184//2 173//2 64//2
f 62//2 163//2 137//2 54//2
f 106//2 116//2 117//2 105//2
f 64//4 173//4 171//4 65//4 172//4
f 180//4 67//4 68//4 181//4 179//4 66//4
f 131//4 134//4 133//4 130//4
f 144//5 56//5 143//5 145//5 146//5 147//5
f 140//5 139//5 142//5 55//5 141//5
f 40//5 41//5 91//5 92//5
f 34//2 96//2 97//2 87//2
f 83//4 33//4 84//4 82//4 32//4
f 121//1 114//1 115//1 103//1 104//1 100//1 102//1 101//1 105//1 117//1 124//1 123//1
f 37//2 90//2 81//2 80//2
f 120//4 115//4 118//4 47//4
f 165//5 166//5 168//5 170//5 167//5
f 91//6 41//6 32//6 82//6
f 139//6 140//6 108//6 107//6
f 126//1 125//1 118//1 115//1 119//1 121//1 152//1 159//1 160//1 155//1 156//1 150//1
f 143//1 111//1 112//1 145//1
f 94//1 85//1 87//1 97//1
f 80//4 81//4 79//4 31//4
f 186//2 187//2 178//2 177//2
f 36//2 40//2 92//2 84//2 33//2
f 38//5 89//5 90//5 37//5
f 94//6 93//6 86//6 85//6
f 110//4 109//4 107//4 108//4
f 132//1 137//1 163//1 169//1 168//1 166//1 162//1 161//1 135//1 129//1 130//1 133//1
f 111//6 143//6 56//6 46//6
f 139//1 107//1 109//1 142//1
f 55//2 142//2 109//2 110//2
f 126//6 150//6 149//6 148//6 48//6
f 185//6 72//6 175//6 174//6
f 186//5 72//5 185//5 187//5
f 75//5 188//5 189//5 74//5
f 51//5 52//5 127//5 121//5 123//5
f 84//1 92//1 91//1 82//1
f 188//1 179//1 181//1 189//1
f 99//6 100//6 104//6 98//6
f 43//2 44//2 101//2 102//2
f 42//4 98//4 104//4 103//4
f 44//4 106//4 105//4 101//4
f 122//5 120//5 115//5 114//5
f 113//2 146//2 145//2 112//2
f 116//5 50//5 124//5 117//5
f 47//6 118//6 125//6 49//6
f 120//2 128//2 119//2 115//2
f 122//6 114//6 121//6 127//6
f 50//2 51//2 123//2 124//2
f 48//4 49//4 125//4 126//4
f 128//4 127//4 121//4 119//4
f 131//6 130//6 129//6 53//6
f 134//2 138//2 132//2 133//2
f 136//4 53//4 129//4 135//4
f 138//4 54//4 137//4 132//4
f 153//5 149//5 150//5 156//5
f 151//5 158//5 159//5 152//5
f 153//6 156//6 155//6 154//6
f 158//2 58//2 160//2 159//2
f 164//5 60//5 161//5 162//5
f 135//6 161//6 60//6 136//6
f 62//5 61//5 169//5 163//5
f 164//6 162//6 166//6 165//6
f 61//2 170//2 168//2 169//2
f 185//1 174//1 178//1 187//1
f 74//2 189//2 181//2 68//2
